# xmcd CD database file
#
# Track frame offsets:
#	150
#	16813
#	32075
#	52423
#	70390
#	89255
#	109433
#	131935
#	156285
#	173898
#	186800
#	208920
#	239195
#	264095
#	285933
#
# Disc length: 4034 seconds
#
# Revision: 0
# Processed by: cddbd v1.4PL0 Copyright (c) Steve Scherf et al.
# Submitted via: CDex 1.50beta10
#
DISCID=e40fc00f
DTITLE=Koko Taylor - South Side Lady
DYEAR=1992
DGENRE=Blues
TTITLE0=I'm a Little Mixed Up
TTITLE1=Wonder Why
TTITLE2=What Kind of Man is This?
TTITLE3=Black Nights
TTITLE4=Love Me to Death
TTITLE5=I Got What it Takes
TTITLE6=Big Boss Man
TTITLE7=I'm Gonna Get Lucky
TTITLE8=Twenty-nine Ways
TTITLE9=I Love a Lover Like You
TTITLE10=Wonder Why II
TTITLE11=Wang Dang Doodle
TTITLE12=I Got What it Takes II
TTITLE13=Twenty-nine Ways II
TTITLE14=I Got My Mojo Working
EXTD=YEAR: 1992
EXTT0=
EXTT1=
EXTT2=
EXTT3=
EXTT4=
EXTT5=
EXTT6=
EXTT7=
EXTT8=
EXTT9=
EXTT10=
EXTT11=
EXTT12=
EXTT13=
EXTT14=
PLAYORDER=
